<?xml version="1.0" encoding="UTF-8"?>
<svg xmlns="http://www.w3.org/2000/svg" xmlns:xlink="http://www.w3.org/1999/xlink" width="40pt" height="40pt" viewBox="0 0 40 40" version="1.1">
<g id="surface1">
<path style=" stroke:none;fill-rule:nonzero;fill:rgb(0%,0%,0%);fill-opacity:1;" d="M 39 17 L 35 17 L 35 13 C 35 12.449219 34.550781 12 34 12 L 32 12 C 31.449219 12 31 12.449219 31 13 L 31 17 L 27 17 C 26.449219 17 26 17.449219 26 18 L 26 20 C 26 20.550781 26.449219 21 27 21 L 31 21 L 31 25 C 31 25.550781 31.449219 26 32 26 L 34 26 C 34.550781 26 35 25.550781 35 25 L 35 21 L 39 21 C 39.550781 21 40 20.550781 40 20 L 40 18 C 40 17.449219 39.550781 17 39 17 Z M 14 20 C 18.417969 20 22 16.417969 22 12 C 22 7.582031 18.417969 4 14 4 C 9.582031 4 6 7.582031 6 12 C 6 16.417969 9.582031 20 14 20 Z M 19.601562 22 L 18.554688 22 C 17.167969 22.636719 15.625 23 14 23 C 12.375 23 10.835938 22.636719 9.445312 22 L 8.398438 22 C 3.761719 22 0 25.761719 0 30.398438 L 0 33 C 0 34.65625 1.34375 36 3 36 L 25 36 C 26.65625 36 28 34.65625 28 33 L 28 30.398438 C 28 25.761719 24.238281 22 19.601562 22 Z M 19.601562 22 "/>
</g>
</svg>
